<?xml version="1.0" encoding="iso-8859-1"?>
<!-- Generator: Adobe Illustrator 19.0.0, SVG Export Plug-In . SVG Version: 6.00 Build 0)  -->
<svg version="1.1" id="Layer_1" xmlns="http://www.w3.org/2000/svg" xmlns:xlink="http://www.w3.org/1999/xlink" x="0px" y="0px"
	 viewBox="0 0 177.204 177.204" style="enable-background:new 0 0 177.204 177.204;" xml:space="preserve">
<g>
	<g>
		<path d="M157.554,24.149c-0.092-1.849-1.618-3.302-3.469-3.302h-29.429C117.432,8.406,103.994,0,88.602,0
			C73.21,0,59.772,8.406,52.549,20.847h-29.43c-1.851,0-3.378,1.452-3.469,3.302l-7.484,149.407
			c-0.048,0.95,0.295,1.878,0.952,2.567c0.656,0.69,1.566,1.081,2.518,1.081h145.932c0.952,0,1.861-0.39,2.518-1.081
			c0.657-0.689,0.999-1.617,0.952-2.567L157.554,24.149z M123.347,41.695c0,1.916-1.559,3.475-3.475,3.475s-3.475-1.559-3.475-3.475
			s1.559-3.475,3.475-3.475S123.347,39.779,123.347,41.695z M88.602,6.949c11.333,0,21.384,5.478,27.731,13.898H60.871
			C67.217,12.427,77.269,6.949,88.602,6.949z M57.331,38.22c1.916,0,3.475,1.559,3.475,3.475s-1.559,3.475-3.475,3.475
			s-3.475-1.559-3.475-3.475S55.415,38.22,57.331,38.22z M19.288,170.254l7.136-142.458H49.34c-1.547,4.355-2.433,9.02-2.433,13.898
			c0,5.748,4.676,10.424,10.424,10.424s10.424-4.676,10.424-10.424c0-5.748-4.676-10.424-10.424-10.424
			c-0.662,0-1.306,0.077-1.934,0.196c0.388-1.258,0.857-2.477,1.38-3.67h63.649c0.523,1.193,0.992,2.412,1.38,3.67
			c-0.628-0.118-1.272-0.196-1.934-0.196c-5.748,0-10.424,4.676-10.424,10.424c0,5.748,4.676,10.424,10.424,10.424
			s10.424-4.676,10.424-10.424c0-4.879-0.886-9.543-2.433-13.898h22.916l7.136,142.458H19.288z"/>
	</g>
</g>
<g>
</g>
<g>
</g>
<g>
</g>
<g>
</g>
<g>
</g>
<g>
</g>
<g>
</g>
<g>
</g>
<g>
</g>
<g>
</g>
<g>
</g>
<g>
</g>
<g>
</g>
<g>
</g>
<g>
</g>
</svg>
